{
  "asset": {
    "version": "2.0",
    "generator": "Altair deterministic fixture"
  },
  "scene": 0,
  "scenes": [
    {
      "nodes": [
        0
      ]
    }
  ],
  "nodes": [
    {
      "mesh": 0,
      "scale": [
        4.0,
        4.0,
        4.0
      ]
    }
  ],
  "meshes": [
    {
      "primitives": [
        {
          "attributes": {
            "POSITION": 0
          },
          "indices": 1,
          "material": 0
        }
      ]
    }
  ],
  "materials": [
    {
      "name": "fixture-blue-fixed-wing",
      "pbrMetallicRoughness": {
        "baseColorFactor": [
          0.08,
          0.28,
          0.62,
          1.0
        ],
        "metallicFactor": 0.0,
        "roughnessFactor": 0.55
      },
      "doubleSided": true,
      "extensions": {
        "KHR_materials_unlit": {}
      }
    }
  ],
  "buffers": [
    {
      "uri": "data:application/octet-stream;base64,",
      "byteLength": 672
    }
  ],
  "bufferViews": [
    {
      "buffer": 0,
      "byteOffset": 0,
      "byteLength": 576,
      "target": 34962
    },
    {
      "buffer": 0,
      "byteOffset": 576,
      "byteLength": 96,
      "target": 34963
    }
  ],
  "accessors": [
    {
      "bufferView": 0,
      "byteOffset": 0,
      "componentType": 5126,
      "count": 48,
      "type": "VEC3",
      "min": [
        -13.0,
        -0.8,
        -7.3
      ],
      "max": [
        13.0,
        4.2,
        8.2
      ]
    },
    {
      "bufferView": 1,
      "byteOffset": 0,
      "componentType": 5123,
      "count": 48,
      "type": "SCALAR"
    }
  ],
  "extensionsUsed": [
    "KHR_materials_unlit"
  ]
}